<svg version="1.1" xmlns="http://www.w3.org/2000/svg" xmlns:xlink="http://www.w3.org/1999/xlink" width="1087" height="295" viewBox="0 0 1087 295"><defs/><g transform="matrix(1,0,0,1,0,0)"><g><g><g><path fill="none" stroke="#d3d3d3" paint-order="fill stroke markers" d=" M 0 0 L 1200 0" stroke-miterlimit="10" stroke-opacity="0.8" stroke-dasharray="5"/></g><g><path fill="none" stroke="#d3d3d3" paint-order="fill stroke markers" d=" M 0 0 L 0 800" stroke-miterlimit="10" stroke-opacity="0.8" stroke-dasharray="5"/></g></g><g id="_F71DE7FD-6C33-465A-A751-FF9B0929D23F" bpmn2nodeid="_F71DE7FD-6C33-465A-A751-FF9B0929D23F" transform="matrix(1,0,0,1,84,166)"><g><path fill="none" stroke="none"/></g><g transform="matrix(0.125,0,0,0.125,0,0)"><g transform="matrix(1,0,0,1,0,0)"><path fill="#e8fae6" stroke="none" id="_F71DE7FD-6C33-465A-A751-FF9B0929D23F?shapeType=BACKGROUND" paint-order="stroke fill markers" d=" M 0 0 M 444 224 C 444 263.9 434.2 300.8 414.4 334.5 C 394.7 368.2 368 394.9 334.4 414.5 C 300.79999999999995 434.1 263.9 444 224 444 C 184.10000000000002 444 147.2 434.2 113.5 414.4 C 79.8 394.7 53.1 368 33.5 334.4 C 13.899999999999999 300.79999999999995 4 263.9 4 224 C 4 184.10000000000002 13.8 147.2 33.6 113.5 C 53.400000000000006 79.80000000000001 80.1 53.1 113.6 33.5 C 147.1 13.899999999999999 184.1 4 224 4 C 263.9 4 300.8 13.8 334.5 33.6 C 368.2 53.400000000000006 394.9 80.1 414.5 113.6 C 434.1 147.1 444 184.1 444 224 Z"/></g><g><g transform="matrix(1,0,0,1,0,0)"><g transform="matrix(1,0,0,1,0,0)"><path fill="rgb(74,162,65)" stroke="none" id="_F71DE7FD-6C33-465A-A751-FF9B0929D23F?shapeType=BORDER&amp;renderType=FILL" paint-order="stroke fill markers" d=" M 0 0 M 224 0 C 100.3 0 0 100.3 0 224 C 0 347.7 100.3 448 224 448 C 347.7 448 448 347.7 448 224 C 448 100.30000000000001 347.7 0 224 0 Z M 0 0 M 224 432 C 109.1 432 16 338.9 16 224 C 16 109.10000000000002 109.1 16 224 16 C 338.9 16 432 109.1 432 224 C 432 338.9 338.9 432 224 432 Z"/></g></g></g></g><g transform="matrix(1,0,0,1,28,61)"/></g><g transform="matrix(1,0,0,1,84,166)"/><g id="_04370D5A-DF4B-462F-ADEF-49528B00A872" bpmn2nodeid="_04370D5A-DF4B-462F-ADEF-49528B00A872" transform="matrix(1,0,0,1,607,166.44444444444443)"><g><path fill="none" stroke="none"/></g><g transform="matrix(0.125,0,0,0.125,0,0)"><g transform="matrix(1,0,0,1,0,0)"><path fill="#fbefcf" stroke="none" id="_04370D5A-DF4B-462F-ADEF-49528B00A872?shapeType=BACKGROUND" paint-order="stroke fill markers" d=" M 0 0 M 444 224 C 444 263.9 434.2 300.8 414.4 334.5 C 394.7 368.2 368 394.9 334.4 414.5 C 300.79999999999995 434.1 263.9 444 224 444 C 184.10000000000002 444 147.2 434.2 113.5 414.4 C 79.8 394.7 53.1 368 33.5 334.4 C 13.899999999999999 300.79999999999995 4 263.9 4 224 C 4 184.10000000000002 13.8 147.2 33.6 113.5 C 53.400000000000006 79.80000000000001 80.1 53.1 113.6 33.5 C 147.1 13.899999999999999 184.1 4 224 4 C 263.9 4 300.8 13.8 334.5 33.6 C 368.2 53.400000000000006 394.9 80.1 414.5 113.6 C 434.1 147.1 444 184.1 444 224 Z"/></g><g><g transform="matrix(1,0,0,1,0,0)"><g transform="matrix(1,0,0,1,0,0)"><path fill="rgb(229,160,0)" stroke="none" id="_04370D5A-DF4B-462F-ADEF-49528B00A872?shapeType=BORDER&amp;renderType=FILL" paint-order="stroke fill markers" d=" M 0 0 M 224 408 C 122.5 408 40 325.5 40 224 C 40 122.5 122.5 40 224 40 C 325.5 40 408 122.5 408 224 C 408 325.5 325.5 408 224 408 Z M 0 0 M 224 56 C 131.4 56 56 131.4 56 224 C 56 316.6 131.4 392 224 392 C 316.6 392 392 316.6 392 224 C 392 131.39999999999998 316.6 56 224 56 Z M 0 0 M 224 16 C 252.1 16 279.3 21.5 305 32.3 C 329.8 42.8 352 57.8 371.1 76.9 C 390.20000000000005 96.00000000000001 405.20000000000005 118.30000000000001 415.70000000000005 143 C 426.50000000000006 168.6 432.00000000000006 195.9 432.00000000000006 224 C 432.00000000000006 252.1 426.50000000000006 279.3 415.70000000000005 305 C 405.20000000000005 329.8 390.20000000000005 352 371.1 371.1 C 352 390.20000000000005 329.70000000000005 405.20000000000005 305 415.70000000000005 C 279.4 426.50000000000006 252.1 432.00000000000006 224 432.00000000000006 C 195.9 432.00000000000006 168.7 426.50000000000006 143 415.70000000000005 C 118.2 405.20000000000005 96 390.20000000000005 76.9 371.1 C 57.80000000000001 352 42.8 329.7 32.3 305 C 21.5 279.3 16 252.1 16 224 C 16 195.9 21.5 168.7 32.3 143 C 42.8 118.2 57.8 96 76.9 76.9 C 96.00000000000001 57.80000000000001 118.30000000000001 42.800000000000004 143 32.300000000000004 C 168.7 21.5 195.9 16 224 16 M 224 0 C 100.3 0 0 100.3 0 224 C 0 347.7 100.3 448 224 448 C 347.7 448 448 347.7 448 224 C 448 100.30000000000001 347.7 0 224 0 L 224 0 Z"/></g></g></g><g><g transform="matrix(1,0,0,1,0,0)"><g transform="matrix(1,0,0,1,0,0)"><path fill="#e5a000" stroke="none" id="_04370D5A-DF4B-462F-ADEF-49528B00A872_message-catching" paint-order="stroke fill markers" d=" M 0 0 M 320.2 288.7 L 320.2 192.7 C 317.59999999999997 195.7 314.7 198.5 311.59999999999997 200.89999999999998 C 289.2 218.09999999999997 271.49999999999994 232.09999999999997 258.4 243.09999999999997 C 254.2 246.69999999999996 250.7 249.49999999999997 247.99999999999997 251.49999999999997 C 245.29999999999995 253.49999999999997 241.79999999999998 255.49999999999997 237.19999999999996 257.59999999999997 C 232.59999999999997 259.7 228.39999999999995 260.7 224.39999999999995 260.7 L 224.19999999999996 260.7 C 220.19999999999996 260.7 215.99999999999997 259.7 211.39999999999995 257.59999999999997 C 206.79999999999995 255.49999999999997 203.19999999999996 253.49999999999997 200.59999999999994 251.49999999999997 C 197.89999999999995 249.49999999999997 194.49999999999994 246.69999999999996 190.19999999999993 243.09999999999997 C 177.09999999999994 232.09999999999997 159.29999999999993 217.99999999999997 136.99999999999994 200.89999999999998 C 133.89999999999995 198.39999999999998 131.09999999999994 195.7 128.39999999999995 192.7 L 128.39999999999995 288.7 C 128.39999999999995 289.8 128.79999999999995 290.7 129.59999999999994 291.5 C 130.39999999999992 292.3 131.39999999999995 292.7 132.39999999999995 292.7 L 316.4 292.7 C 317.5 292.7 318.4 292.3 319.2 291.5 C 319.9 290.7 320.2 289.8 320.2 288.7 Z M 0 0 M 320.2 152.7 C 320.2 151.6 319.8 150.7 319 149.89999999999998 C 318.2 149.09999999999997 317.3 148.7 316.2 148.7 L 316.2 148.7 L 132.2 148.7 C 131.1 148.7 130.2 149.1 129.39999999999998 149.89999999999998 C 128.59999999999997 150.7 128.2 151.59999999999997 128.2 152.7 C 128.2 166.7 134.29999999999998 178.5 146.6 188.2 C 162.7 200.89999999999998 179.39999999999998 214.1 196.7 227.79999999999998 C 197.2 228.2 198.6 229.49999999999997 201.1 231.49999999999997 C 203.6 233.59999999999997 205.5 235.09999999999997 206.9 236.19999999999996 C 208.3 237.29999999999995 210.1 238.59999999999997 212.5 240.09999999999997 C 214.9 241.59999999999997 216.9 242.79999999999995 218.8 243.49999999999997 C 220.70000000000002 244.29999999999998 222.5 244.59999999999997 224.20000000000002 244.59999999999997 L 224.4 244.59999999999997 C 226 244.59999999999997 227.8 244.19999999999996 229.8 243.49999999999997 C 231.8 242.79999999999998 233.8 241.59999999999997 236.10000000000002 240.09999999999997 C 238.40000000000003 238.59999999999997 240.3 237.19999999999996 241.70000000000002 236.19999999999996 C 243.10000000000002 235.09999999999997 245.10000000000002 233.59999999999997 247.50000000000003 231.49999999999997 C 249.90000000000003 229.39999999999998 251.40000000000003 228.29999999999998 251.90000000000003 227.79999999999998 C 269.3 213.99999999999997 285.90000000000003 200.89999999999998 302.00000000000006 188.2 C 306.50000000000006 184.6 310.70000000000005 179.79999999999998 314.6000000000001 173.7 C 318.50000000000006 167.7 320.4000000000001 162.2 320.4000000000001 157.29999999999998 L 320.4000000000001 154.2 L 320.4000000000001 152.7 Z M 0 0 M 336.2 152.7 L 336.2 288.7 C 336.2 294.2 334.3 298.9 330.3 302.8 C 326.40000000000003 306.7 321.7 308.7 316.2 308.7 L 132.2 308.7 C 126.69999999999999 308.7 121.99999999999999 306.7 118.1 302.8 C 114.19999999999999 298.90000000000003 112.19999999999999 294.2 112.19999999999999 288.7 L 112.19999999999999 152.7 C 112.19999999999999 147.2 114.19999999999999 142.5 118.1 138.6 C 122 134.7 126.69999999999999 132.7 132.2 132.7 L 316.2 132.7 C 321.7 132.7 326.4 134.6 330.3 138.6 C 334.2 142.6 336.2 147.2 336.2 152.7 Z"/></g></g></g></g><g transform="matrix(1,0,0,1,28,61)"/></g><g transform="matrix(1,0,0,1,607,166.44444444444443)"/><g id="_029CCCE6-8CBA-4535-9510-8F623B2376D4" bpmn2nodeid="_029CCCE6-8CBA-4535-9510-8F623B2376D4" transform="matrix(1,0,0,1,471,165.66666666666666)"><g><path fill="none" stroke="none"/></g><g transform="matrix(0.125,0,0,0.125,0,0)"><g transform="matrix(1,0,0,1,0,0)"><path fill="#bedee1" stroke="none" id="_029CCCE6-8CBA-4535-9510-8F623B2376D4?shapeType=BACKGROUND" paint-order="stroke fill markers" d=" M 0 0 M 444 224 C 444 263.9 434.2 300.8 414.4 334.5 C 394.7 368.2 368 394.9 334.4 414.5 C 300.79999999999995 434.1 263.9 444 224 444 C 184.10000000000002 444 147.2 434.2 113.5 414.4 C 79.8 394.7 53.1 368 33.5 334.4 C 13.899999999999999 300.79999999999995 4 263.9 4 224 C 4 184.10000000000002 13.8 147.2 33.6 113.5 C 53.400000000000006 79.80000000000001 80.1 53.1 113.6 33.5 C 147.1 13.899999999999999 184.1 4 224 4 C 263.9 4 300.8 13.8 334.5 33.6 C 368.2 53.400000000000006 394.9 80.1 414.5 113.6 C 434.1 147.1 444 184.1 444 224 Z"/></g><g><g transform="matrix(1,0,0,1,0,0)"><g transform="matrix(1,0,0,1,0,0)"><path fill="rgb(0,122,135)" stroke="none" id="_029CCCE6-8CBA-4535-9510-8F623B2376D4?shapeType=BORDER&amp;renderType=FILL" paint-order="stroke fill markers" d=" M 0 0 M 224 408 C 122.5 408 40 325.5 40 224 C 40 122.5 122.5 40 224 40 C 325.5 40 408 122.5 408 224 C 408 325.5 325.5 408 224 408 Z M 0 0 M 224 56 C 131.4 56 56 131.4 56 224 C 56 316.6 131.4 392 224 392 C 316.6 392 392 316.6 392 224 C 392 131.39999999999998 316.6 56 224 56 Z M 0 0 M 224 16 C 252.1 16 279.3 21.5 305 32.3 C 329.8 42.8 352 57.8 371.1 76.9 C 390.20000000000005 96.00000000000001 405.20000000000005 118.30000000000001 415.70000000000005 143 C 426.50000000000006 168.6 432.00000000000006 195.9 432.00000000000006 224 C 432.00000000000006 252.1 426.50000000000006 279.3 415.70000000000005 305 C 405.20000000000005 329.8 390.20000000000005 352 371.1 371.1 C 352 390.20000000000005 329.70000000000005 405.20000000000005 305 415.70000000000005 C 279.4 426.50000000000006 252.1 432.00000000000006 224 432.00000000000006 C 195.9 432.00000000000006 168.7 426.50000000000006 143 415.70000000000005 C 118.2 405.20000000000005 96 390.20000000000005 76.9 371.1 C 57.80000000000001 352 42.8 329.7 32.3 305 C 21.5 279.3 16 252.1 16 224 C 16 195.9 21.5 168.7 32.3 143 C 42.8 118.2 57.8 96 76.9 76.9 C 96.00000000000001 57.80000000000001 118.30000000000001 42.800000000000004 143 32.300000000000004 C 168.7 21.5 195.9 16 224 16 M 224 0 C 100.3 0 0 100.3 0 224 C 0 347.7 100.3 448 224 448 C 347.7 448 448 347.7 448 224 C 448 100.30000000000001 347.7 0 224 0 L 224 0 Z"/></g></g></g><g><g transform="matrix(1,0,0,1,0,0)"><g transform="matrix(1,0,0,1,0,0)"><path fill="#007a87" stroke="none" id="_029CCCE6-8CBA-4535-9510-8F623B2376D4_message-throwing" paint-order="stroke fill markers" d=" M 0 0 M 336.2 189.4 L 336.2 288.7 C 336.2 294.2 334.3 298.9 330.3 302.8 C 326.40000000000003 306.7 321.7 308.7 316.2 308.7 L 132.2 308.7 C 126.69999999999999 308.7 121.99999999999999 306.7 118.1 302.8 C 114.19999999999999 298.90000000000003 112.19999999999999 294.2 112.19999999999999 288.7 L 112.19999999999999 189.39999999999998 C 115.89999999999999 193.49999999999997 120.1 197.09999999999997 124.79999999999998 200.29999999999998 C 154.99999999999997 220.79999999999998 175.7 235.2 186.89999999999998 243.39999999999998 C 191.7 246.89999999999998 195.49999999999997 249.59999999999997 198.49999999999997 251.59999999999997 C 201.39999999999998 253.49999999999997 205.39999999999998 255.49999999999997 210.29999999999998 257.59999999999997 C 215.2 259.7 219.79999999999998 260.7 224.1 260.7 L 224.29999999999998 260.7 C 228.49999999999997 260.7 233.1 259.7 238.1 257.59999999999997 C 243 255.49999999999997 247 253.49999999999997 249.9 251.59999999999997 C 252.8 249.69999999999996 256.7 246.89999999999998 261.5 243.39999999999998 C 275.6 233.2 296.4 218.79999999999998 323.7 200.29999999999998 C 328.5 197.1 332.6 193.4 336.2 189.4 Z M 0 0 M 336.2 152.7 C 336.2 159.29999999999998 334.2 165.6 330.09999999999997 171.6 C 326.09999999999997 177.6 320.99999999999994 182.7 314.9 187 C 283.5 208.8 264 222.3 256.4 227.6 C 255.59999999999997 228.2 253.79999999999998 229.4 251.09999999999997 231.4 C 248.39999999999995 233.4 246.19999999999996 235 244.29999999999995 236.20000000000002 C 242.39999999999995 237.40000000000003 240.39999999999995 238.8 237.79999999999995 240.3 C 235.19999999999996 241.8 232.89999999999995 242.9 230.59999999999997 243.70000000000002 C 228.29999999999998 244.50000000000003 226.19999999999996 244.8 224.39999999999998 244.8 L 224.2 244.8 C 222.29999999999998 244.8 220.2 244.4 218 243.70000000000002 C 215.8 243.00000000000003 213.3 241.8 210.8 240.3 C 208.20000000000002 238.8 206.10000000000002 237.4 204.3 236.20000000000002 C 202.5 235.00000000000003 200.20000000000002 233.4 197.5 231.4 C 194.79999999999998 229.4 193 228.20000000000002 192.2 227.6 C 184.6 222.29999999999998 173.7 214.7 159.39999999999998 204.79999999999998 C 145.09999999999997 194.89999999999998 136.59999999999997 188.99999999999997 133.79999999999998 186.99999999999997 C 128.6 183.49999999999997 123.69999999999999 178.69999999999996 119.19999999999999 172.59999999999997 C 114.69999999999999 166.49999999999997 112.29999999999998 160.79999999999995 112.29999999999998 155.49999999999997 C 112.29999999999998 148.99999999999997 114.09999999999998 143.59999999999997 117.49999999999999 139.29999999999998 C 120.89999999999999 134.99999999999997 125.89999999999999 132.79999999999998 132.29999999999998 132.79999999999998 L 316.29999999999995 132.79999999999998 C 321.69999999999993 132.79999999999998 326.4 134.7 330.4 138.7 C 334.2 142.6 336.2 147.2 336.2 152.7 Z"/></g></g></g></g><g transform="matrix(1,0,0,1,28,61)"/></g><g transform="matrix(1,0,0,1,471,165.66666666666666)"/><g id="_754F74BC-B6C4-4B00-A33A-5DDAA8CEA545" bpmn2nodeid="_754F74BC-B6C4-4B00-A33A-5DDAA8CEA545" transform="matrix(1,0,0,1,981,165.88888888888889)"><g><path fill="none" stroke="none"/></g><g transform="matrix(0.125,0,0,0.125,0,0)"><g transform="matrix(1,0,0,1,0,0)"><path fill="#fce7e7" stroke="none" id="_754F74BC-B6C4-4B00-A33A-5DDAA8CEA545?shapeType=BACKGROUND" paint-order="stroke fill markers" d=" M 0 0 M 444 224 C 444 263.9 434.2 300.8 414.4 334.5 C 394.7 368.2 368 394.9 334.4 414.5 C 300.79999999999995 434.1 263.9 444 224 444 C 184.10000000000002 444 147.2 434.2 113.5 414.4 C 79.8 394.7 53.1 368 33.5 334.4 C 13.899999999999999 300.79999999999995 4 263.9 4 224 C 4 184.10000000000002 13.8 147.2 33.6 113.5 C 53.400000000000006 79.80000000000001 80.1 53.1 113.6 33.5 C 147.1 13.899999999999999 184.1 4 224 4 C 263.9 4 300.8 13.8 334.5 33.6 C 368.2 53.400000000000006 394.9 80.1 414.5 113.6 C 434.1 147.1 444 184.1 444 224 Z"/></g><g><g transform="matrix(1,0,0,1,0,0)"><g transform="matrix(1,0,0,1,0,0)"><path fill="rgb(163,0,0)" stroke="none" id="_754F74BC-B6C4-4B00-A33A-5DDAA8CEA545?shapeType=BORDER&amp;renderType=FILL" paint-order="stroke fill markers" d=" M 0 0 M 224 0 C 100.3 0 0 100.3 0 224 C 0 347.7 100.3 448 224 448 C 347.7 448 448 347.7 448 224 C 448 100.30000000000001 347.7 0 224 0 Z M 0 0 M 224 400 C 126.8 400 48 321.2 48 224 C 48 126.80000000000001 126.8 48 224 48 C 321.2 48 400 126.8 400 224 C 400 321.2 321.2 400 224 400 Z"/></g></g></g></g><g transform="matrix(1,0,0,1,28,61)"/></g><g transform="matrix(1,0,0,1,981,165.88888888888889)"/><g id="_0EC7C844-B4F2-42D3-8E21-699A5DD4CFF4" bpmn2nodeid="_0EC7C844-B4F2-42D3-8E21-699A5DD4CFF4"><g><path fill="none" stroke="rgb(0,0,0)" paint-order="fill stroke markers" d=" M 527 193.86831275720164 L 592.0003889626684 194.3364225542579" stroke-miterlimit="10" stroke-dasharray=""/></g><g transform="matrix(1,0,0,1,527,193.86831275720164)"/><g transform="matrix(-0.007201459345768974,0.9999740691554413,-0.9999740691554413,-0.007201459345768974,607.0360072967288,189.44457409866723)"><path fill="rgb(0,0,0)" stroke="rgb(0,0,0)" paint-order="fill stroke markers" d=" M 10 15 L 0 15 L 5 0 Z" stroke-miterlimit="10" stroke-dasharray=""/></g><g transform="matrix(1,0,0,1,527.0720145934577,184.1566379092686)"/></g><g id="_DF00081D-182C-47B2-9E1F-684498792631" bpmn2nodeid="_DF00081D-182C-47B2-9E1F-684498792631" transform="matrix(1,0,0,1,236,143)"><g><path fill="none" stroke="none"/></g><g transform="matrix(1,0,0,1,0,0)"><path fill="#ffffff" stroke="none" id="_DF00081D-182C-47B2-9E1F-684498792631?shapeType=BACKGROUND" paint-order="stroke fill markers" d=" M 2 0 L 152 0 L 152 0 A 2 2 0 0 1 154 2 L 154 100 L 154 100 A 2 2 0 0 1 152 102 L 2 102 L 2 102 A 2 2 0 0 1 0 100 L 0 2 L 0 2.0000000000000004 A 2 2 0 0 1 1.9999999999999996 0 Z"/></g><g transform="matrix(1,0,0,1,0,0)"><path fill="none" stroke="rgb(0,0,0)" id="_DF00081D-182C-47B2-9E1F-684498792631?shapeType=BORDER&amp;renderType=STROKE" paint-order="fill stroke markers" d=" M 2 0 L 152 0 L 152 0 A 2 2 0 0 1 154 2 L 154 100 L 154 100 A 2 2 0 0 1 152 102 L 2 102 L 2 102 A 2 2 0 0 1 0 100 L 0 2 L 0 2.0000000000000004 A 2 2 0 0 1 1.9999999999999996 0 Z" stroke-miterlimit="10" stroke-width="1.5" stroke-dasharray=""/></g><g><g transform="matrix(0.06,0,0,0.06,9.4,9.4)"><g transform="matrix(1,0,0,1,0,0)"><path fill="#393f44" stroke="none" id="_DF00081D-182C-47B2-9E1F-684498792631_task__Rp8r__WReX" paint-order="stroke fill markers" d=" M 0 0 M 16 445.2101 C 16 440.86867 18.784312 431.12906000000004 22.001325 424.21728 C 35.767643 394.6402 77.282944 359.28049 129 333.08362 C 144.51625 325.22398 157.34689 319.96394 167.80739 317.17416 C 171.93153 316.07426 175.72913 314.41389999999996 176.5251 313.36265 C 178.89361 310.23449999999997 180.91404 302.90781 181.72673 294.5 L 182.5 286.5 L 178.50715 283.45457 C 166.30327 274.14645 154.2837 251.67767 148.03953 226.5 C 145.61086 216.70715 145.05603000000002 215.46246 142.98364 215.1579 C 141.70332000000002 214.96974 138.08302 212.24302 134.93852 209.09852 C 123.23314 197.39314000000002 116.89146000000001 177.37556 121.43982000000001 166.48978 C 123.00204000000001 162.75088 128.15457 159.00970999999998 131.75 159.00374 C 134.44781 158.99974 134.47062 158.60296 132.91375 138.78796 C 130.92658 113.4962 134.27903 92.26542699999999 143.13217 74.075676 C 152.23162 55.379835 167.56889 42.88208 189.04934 36.659507000000005 C 210.20334 30.531504000000005 237.79666 30.531504000000005 258.95065999999997 36.659507000000005 C 300.04166 48.562968000000005 318.95842 83.80634 314.95504999999997 141 C 314.31982999999997 150.075 313.62402 157.78816 313.4088 158.14035 C 313.19359 158.49254000000002 314.57532 159.07295000000002 316.47931 159.43014000000002 C 328.92867 161.76565000000002 330.98619 177.01772000000003 321.49638 196.62092 C 316.90319 206.10912000000002 309.35724 214.50797 304.81732 215.18517000000003 C 303.02259 215.45289000000002 302.2931 217.14618000000002 299.94277999999997 226.50000000000003 C 296.65948 239.56693 294.47402 245.30522000000002 287.94764 257.99534000000006 C 282.49071999999995 268.60596000000004 273.03466 281.10922000000005 268.10756999999995 284.2288300000001 L 264.87062 286.27832000000006 L 265.51815999999997 292.88916000000006 C 266.34490999999997 301.32961000000006 268.63948999999997 309.8706000000001 270.87735999999995 312.83742000000007 C 272.06735 314.4150200000001 275.00244999999995 315.78963000000005 280.0630699999999 317.13941000000005 C 291.06929999999994 320.0750300000001 303.61700999999994 325.27420000000006 320.99999999999994 334.10171 C 369.81470999999993 358.89104000000003 410.84810999999996 393.75797 425.03216 422.5 C 429.06985999999995 430.68183 432 440.23198 432 445.2101 L 432 448 L 224 448 L 16 448 L 16 445.2101 Z"/></g></g></g><g transform="matrix(1,0,0,1,4.039999999999992,13.680000000000007)"><g transform="matrix(0.04,0,0,0.04,63.36,69.12)"><g transform="matrix(1,0,0,1,0,0)"><path fill="none" stroke="none"/></g><g transform="matrix(1,0,0,1,0,0)"><path fill="none" stroke="none"/></g></g></g><g transform="matrix(1,0,0,1,35,21)"><text fill="#000000" stroke="none" font-family="Open Sans" font-size="12pt" font-style="normal" font-weight="normal" text-decoration="normal" x="46.30078125" y="12" text-anchor="middle" dominant-baseline="alphabetic">    Gather      </text><text fill="#000000" stroke="none" font-family="Open Sans" font-size="12pt" font-style="normal" font-weight="normal" text-decoration="normal" x="46.30078125" y="27" text-anchor="middle" dominant-baseline="alphabetic">information </text><text fill="#000000" stroke="none" font-family="Open Sans" font-size="12pt" font-style="normal" font-weight="normal" text-decoration="normal" x="46.30078125" y="42" text-anchor="middle" dominant-baseline="alphabetic">  about the   </text><text fill="#000000" stroke="none" font-family="Open Sans" font-size="12pt" font-style="normal" font-weight="normal" text-decoration="normal" x="46.30078125" y="57" text-anchor="middle" dominant-baseline="alphabetic">     charge     </text></g></g><g id="_31245384-0C61-41F6-AF57-E39DBB1068D6" bpmn2nodeid="_31245384-0C61-41F6-AF57-E39DBB1068D6"><g><path fill="none" stroke="rgb(0,0,0)" paint-order="fill stroke markers" d=" M 140 194 L 221 194" stroke-miterlimit="10" stroke-dasharray=""/></g><g transform="matrix(1,0,0,1,140,194)"/><g transform="matrix(6.123233995736766e-17,1,-1,6.123233995736766e-17,236,189)"><path fill="rgb(0,0,0)" stroke="rgb(0,0,0)" paint-order="fill stroke markers" d=" M 10 15 L 0 15 L 5 0 Z" stroke-miterlimit="10" stroke-dasharray=""/></g><g transform="matrix(1,0,0,1,140,184)"/></g><g id="_AEAE6F16-E8A0-4B60-A81B-DE0D861CB4EF" bpmn2nodeid="_AEAE6F16-E8A0-4B60-A81B-DE0D861CB4EF"><g><path fill="none" stroke="rgb(0,0,0)" paint-order="fill stroke markers" d=" M 390 193.83755274261603 L 456.00003338129113 193.69831216586223" stroke-miterlimit="10" stroke-dasharray=""/></g><g transform="matrix(1,0,0,1,390,193.83755274261603)"/><g transform="matrix(0.002109699946371849,0.9999977745805919,-0.9999977745805919,0.002109699946371849,470.98945150026816,188.6666777937637)"><path fill="rgb(0,0,0)" stroke="rgb(0,0,0)" paint-order="fill stroke markers" d=" M 10 15 L 0 15 L 5 0 Z" stroke-miterlimit="10" stroke-dasharray=""/></g><g transform="matrix(1,0,0,1,390.02109699946374,183.7521319588354)"/></g><g transform="matrix(1,0,0,1,236,143)"/><g id="_A56A89CF-FC75-417E-AA78-99DCD89FC8F8" bpmn2nodeid="_A56A89CF-FC75-417E-AA78-99DCD89FC8F8" transform="matrix(1,0,0,1,745,143)"><g><path fill="none" stroke="none"/></g><g transform="matrix(1,0,0,1,0,0)"><path fill="#ffffff" stroke="none" id="_A56A89CF-FC75-417E-AA78-99DCD89FC8F8?shapeType=BACKGROUND" paint-order="stroke fill markers" d=" M 2 0 L 152 0 L 152 0 A 2 2 0 0 1 154 2 L 154 100 L 154 100 A 2 2 0 0 1 152 102 L 2 102 L 2 102 A 2 2 0 0 1 0 100 L 0 2 L 0 2.0000000000000004 A 2 2 0 0 1 1.9999999999999996 0 Z"/></g><g transform="matrix(1,0,0,1,0,0)"><path fill="none" stroke="rgb(0,0,0)" id="_A56A89CF-FC75-417E-AA78-99DCD89FC8F8?shapeType=BORDER&amp;renderType=STROKE" paint-order="fill stroke markers" d=" M 2 0 L 152 0 L 152 0 A 2 2 0 0 1 154 2 L 154 100 L 154 100 A 2 2 0 0 1 152 102 L 2 102 L 2 102 A 2 2 0 0 1 0 100 L 0 2 L 0 2.0000000000000004 A 2 2 0 0 1 1.9999999999999996 0 Z" stroke-miterlimit="10" stroke-width="1.5" stroke-dasharray=""/></g><g><g transform="matrix(0.06,0,0,0.06,9.4,9.4)"><g transform="matrix(1,0,0,1,0,0)"><path fill="#393f44" stroke="none" id="_A56A89CF-FC75-417E-AA78-99DCD89FC8F8_task__Rp8r__WReX" paint-order="stroke fill markers" d=" M 0 0 M 16 445.2101 C 16 440.86867 18.784312 431.12906000000004 22.001325 424.21728 C 35.767643 394.6402 77.282944 359.28049 129 333.08362 C 144.51625 325.22398 157.34689 319.96394 167.80739 317.17416 C 171.93153 316.07426 175.72913 314.41389999999996 176.5251 313.36265 C 178.89361 310.23449999999997 180.91404 302.90781 181.72673 294.5 L 182.5 286.5 L 178.50715 283.45457 C 166.30327 274.14645 154.2837 251.67767 148.03953 226.5 C 145.61086 216.70715 145.05603000000002 215.46246 142.98364 215.1579 C 141.70332000000002 214.96974 138.08302 212.24302 134.93852 209.09852 C 123.23314 197.39314000000002 116.89146000000001 177.37556 121.43982000000001 166.48978 C 123.00204000000001 162.75088 128.15457 159.00970999999998 131.75 159.00374 C 134.44781 158.99974 134.47062 158.60296 132.91375 138.78796 C 130.92658 113.4962 134.27903 92.26542699999999 143.13217 74.075676 C 152.23162 55.379835 167.56889 42.88208 189.04934 36.659507000000005 C 210.20334 30.531504000000005 237.79666 30.531504000000005 258.95065999999997 36.659507000000005 C 300.04166 48.562968000000005 318.95842 83.80634 314.95504999999997 141 C 314.31982999999997 150.075 313.62402 157.78816 313.4088 158.14035 C 313.19359 158.49254000000002 314.57532 159.07295000000002 316.47931 159.43014000000002 C 328.92867 161.76565000000002 330.98619 177.01772000000003 321.49638 196.62092 C 316.90319 206.10912000000002 309.35724 214.50797 304.81732 215.18517000000003 C 303.02259 215.45289000000002 302.2931 217.14618000000002 299.94277999999997 226.50000000000003 C 296.65948 239.56693 294.47402 245.30522000000002 287.94764 257.99534000000006 C 282.49071999999995 268.60596000000004 273.03466 281.10922000000005 268.10756999999995 284.2288300000001 L 264.87062 286.27832000000006 L 265.51815999999997 292.88916000000006 C 266.34490999999997 301.32961000000006 268.63948999999997 309.8706000000001 270.87735999999995 312.83742000000007 C 272.06735 314.4150200000001 275.00244999999995 315.78963000000005 280.0630699999999 317.13941000000005 C 291.06929999999994 320.0750300000001 303.61700999999994 325.27420000000006 320.99999999999994 334.10171 C 369.81470999999993 358.89104000000003 410.84810999999996 393.75797 425.03216 422.5 C 429.06985999999995 430.68183 432 440.23198 432 445.2101 L 432 448 L 224 448 L 16 448 L 16 445.2101 Z"/></g></g></g><g transform="matrix(1,0,0,1,4.039999999999992,13.680000000000007)"><g transform="matrix(0.04,0,0,0.04,63.36,69.12)"><g transform="matrix(1,0,0,1,0,0)"><path fill="none" stroke="none"/></g><g transform="matrix(1,0,0,1,0,0)"><path fill="none" stroke="none"/></g></g></g><g transform="matrix(1,0,0,1,35,28.5)"><text fill="#000000" stroke="none" font-family="Open Sans" font-size="12pt" font-style="normal" font-weight="normal" text-decoration="normal" x="54.796875" y="12" text-anchor="middle" dominant-baseline="alphabetic">Archive payme</text><text fill="#000000" stroke="none" font-family="Open Sans" font-size="12pt" font-style="normal" font-weight="normal" text-decoration="normal" x="54.796875" y="27" text-anchor="middle" dominant-baseline="alphabetic">    nt-related     </text><text fill="#000000" stroke="none" font-family="Open Sans" font-size="12pt" font-style="normal" font-weight="normal" text-decoration="normal" x="54.796875" y="42" text-anchor="middle" dominant-baseline="alphabetic">   documents   </text></g></g><g id="_F08B2150-6D6E-4B66-8FC3-E3E097B8816C" bpmn2nodeid="_F08B2150-6D6E-4B66-8FC3-E3E097B8816C"><g><path fill="none" stroke="rgb(0,0,0)" paint-order="fill stroke markers" d=" M 663 194.33131313131312 L 730.000122434987 194.06060556591925" stroke-miterlimit="10" stroke-dasharray=""/></g><g transform="matrix(1,0,0,1,663,194.33131313131312)"/><g transform="matrix(0.004040371061283135,0.9999918376675317,-0.9999918376675317,0.004040371061283135,744.9797981446936,189.00004081166233)"><path fill="rgb(0,0,0)" stroke="rgb(0,0,0)" paint-order="fill stroke markers" d=" M 10 15 L 0 15 L 5 0 Z" stroke-miterlimit="10" stroke-dasharray=""/></g><g transform="matrix(1,0,0,1,663.0404037106128,184.16573818898124)"/></g><g id="_5D2B36E0-7E2A-4312-A4E2-493D6CE8644B" bpmn2nodeid="_5D2B36E0-7E2A-4312-A4E2-493D6CE8644B"><g><path fill="none" stroke="rgb(0,0,0)" paint-order="fill stroke markers" d=" M 899 193.94619147449336 L 966.0000036625354 193.89937106662296" stroke-miterlimit="10" stroke-dasharray=""/></g><g transform="matrix(1,0,0,1,899,193.94619147449336)"/><g transform="matrix(0.0006988118489384301,0.9999997558309701,-0.9999997558309701,0.0006988118489384301,980.9965059407554,188.88889010973404)"><path fill="rgb(0,0,0)" stroke="rgb(0,0,0)" paint-order="fill stroke markers" d=" M 10 15 L 0 15 L 5 0 Z" stroke-miterlimit="10" stroke-dasharray=""/></g><g transform="matrix(1,0,0,1,899.0069881184894,183.91754262338142)"/></g><g transform="matrix(1,0,0,1,745,143)"/></g></g></svg>